<?xml version="1.0" encoding="utf-8"?>
<!-- Generator: Adobe Illustrator 19.2.0, SVG Export Plug-In . SVG Version: 6.00 Build 0)  -->
<svg version="1.1" id="emory" xmlns="http://www.w3.org/2000/svg" xmlns:xlink="http://www.w3.org/1999/xlink" x="0px" y="0px"
	 viewBox="0 0 765 99.4" style="enable-background:new 0 0 765 99.4;" xml:space="preserve">
<style type="text/css">
	.st0{fill:rgba(255,255,255,.75);}
</style>
<g>
	<g>
		<g>
			<g>
				<path class="st0" d="M45.1,91.7C2.9,72.2,8,28.6,8,8.3l74.6,0.1C82.5,28.7,87.2,72.3,45.1,91.7z M8,5L4.8,8.3
					c0,2.4-0.1,5.5-0.1,7C4.4,39.2,6,76.4,44.9,94.4C65.5,84.9,81,68.5,85.1,43.1c2.4-14.7,1-28.7,1-38.1L8,5z"/>
			</g>
			<g>
				<path class="st0" d="M29.1,58.4c-3,3.2-5.9,6.4-6.9,7.4C22,66,22,66.3,22.1,66.4c0.2,0.2,0.5,0.5,0.6,0.5c0.2,0,0.3,0.1,0.6-0.2
					c0.1-0.1,3.4-3.3,7.3-7.1c0,0-0.4-0.2-0.7-0.5C29.5,58.9,29.1,58.4,29.1,58.4z"/>
				<g>
					<path class="st0" d="M31.1,57.5c0.8,0.7,2,1.4,2,1.4l-0.7,0.7c-0.3,0.3-1.2-0.2-2.2-1c-0.9-0.8-1.5-1.7-1.2-2l0.8-0.7
						C29.8,55.9,30.4,56.8,31.1,57.5z"/>
				</g>
				<g>
					<g>
						<g>
							<path class="st0" d="M65.2,65.8c0.6-0.6,0.6-1.2,0.6-1.2l0.7,0.3c0.2,0.2,0,1-0.6,1.6c-0.6,0.6-1.5,0.8-1.7,0.6l-0.4-0.7
								C63.9,66.4,64.6,66.4,65.2,65.8z"/>
						</g>
					</g>
					<g>
						<g>
							<path class="st0" d="M64.2,64.7c0.4-0.4,0.5-0.8,0.5-0.8l0.4,0.3c0.1,0.2,0,0.6-0.4,1.1c-0.5,0.5-1.1,0.6-1.2,0.4l-0.3-0.5
								C63.2,65.2,63.8,65,64.2,64.7z"/>
						</g>
					</g>
				</g>
			</g>
			<g>
				<path class="st0" d="M66.2,30.6l-0.8,0.7c-1.1,0.4-3.6-1.5-5.5-3.2c-1.3-1.1-3.9-4-3.2-5.2l0.3-0.3c-0.2-0.1-0.4-0.3-0.6-0.3
					c-0.2-0.1-0.5-0.2-0.8-0.2c-0.3,0-0.6,0.2-0.6,0.4c-0.1,0.5,0.2,1.2,0.7,2c0.4,0.8,2,3.2,5.3,5.8c1.5,1.2,3.2,1.9,4.4,2.4
					c0.2,0.1,1,0.2,1.3-0.1c0.3-0.3,0-0.9-0.3-1.5C66.5,31,66.4,30.8,66.2,30.6z"/>
			</g>
			<path class="st0" d="M64.7,23.1"/>
			<path class="st0" d="M63.1,22.4"/>
			<path class="st0" d="M32.4,18.5c0,0.2,0,0.5,0,0.8c0,0.8,0.7,7.3,4.5,12.1C40.2,35.4,50,47.1,51.6,49c1.5,1.7,11.1,13,12.3,14.5
				c0,0.1,0.1,0.1,0.1,0.2c0,0-0.1,0.3-0.4,0.5c-0.3,0.2-0.6,0.3-0.6,0.3c0,0-0.3-0.3-0.3-0.3c-0.3-0.4-17-17.1-18.7-18.7
				c-1.6-1.6-10.2-9.9-13.8-12.2c-3.1-2-4.5-3.1-7.8-3.3c0,0-2.4-0.1-2.6-0.2c0,0,0-0.1,0.1-0.2c1.5-0.6,4.7-2.5,7.3-4.9
				c3.6-3.4,4.7-5.8,4.9-6.2C32.2,18.4,32.4,18.4,32.4,18.5z M34.8,32.6c-3.5-3.4-4.8-4.2-6.3-4.9c-0.8-0.3-1.6-0.6-1.9-0.5
				c-0.7,0.3-1.7,0.7-2.3,1.3c-0.5,0.4-0.4,0.6-0.2,0.7c0.2,0.1,2,0.5,3.6,1.4c2.8,1.5,8.1,5.2,19.6,17.1c5.8,6,15,15.4,15,15.4
				l0.2-0.2c0,0-13.4-15-23.8-26.1C37.3,35.1,36,33.8,34.8,32.6z"/>
			<path class="st0" d="M66,30.5"/>
			<path class="st0" d="M24.5,25.5c-1.5,1.3-3.4,2.5-5.1,3.1c-1.1,0.4-2.6-0.1-1.5-2.1c0.3-0.6,0.8-1.4,1.4-2.2c2-2.7,5.6-6,9.1-7.8
				c1.1-0.6,2-0.9,2.5-0.9c0.9,0.1,0.9,0.8,0.8,1.5C31.3,18.5,28.8,21.9,24.5,25.5z M25.6,23.5c0.4-0.3,1.8-1.7,2.9-3.1
				c1.2-1.5,1.9-2.7,1.9-2.7s0.2-0.4,0.2-0.7c0-0.2-0.3-0.3-0.3-0.4c-0.1-0.1-3.1,1.2-4.5,2.5c-0.2,0.1-0.4,0.8-0.6,1.2
				c-0.1,0.4,0.9,1.4,0.2,3.1C25.3,23.6,25.5,23.6,25.6,23.5z"/>
			<path class="st0" d="M32.4,18.9"/>
			<g>
				<path class="st0" d="M43.8,46.4c-0.7,0.7-11.5,11.1-11.5,11.1c0.2,0.2,0.6,0.5,0.6,0.5s10-9.6,10.7-10.3
					c0.2-0.2,0.6-0.6,0.8-0.7L43.8,46.4z"/>
				<path class="st0" d="M64.2,33.6c0.2,0,0.3,0,0.5,0c0.2,0,0.4,0,0.4-0.1c0.1-0.1,0.2-0.2,0-0.2c-0.5,0-1.4-0.3-2.5-0.8
					c-0.6,0.2-1.7,0.5-2.9,1c-1.6,0.7-5,2.7-12,9.2l0.5,0.6c2.4-2.2,5.7-5.1,7.4-6.2c3.1-2,5.4-3,6.9-3.3
					C63.1,33.7,63.7,33.6,64.2,33.6z"/>
			</g>
			<g>
				<path class="st0" d="M57.4,28.5c-1.9-2-2.5-3.4-2.8-4.5c0,0,0-0.1,0-0.1c0,0-0.1,0-0.1,0c0,0,0,0.1,0,0.1
					c-0.2,2.1,0,2.9-0.9,5.1c-0.7,1.8-2,4-3.8,6.1c-1,1.2-2.7,3.1-4.3,5l1.1,1.3c0.1-0.1,0.5-0.5,0.9-0.9c5.3-5.7,10-9.3,11.7-10.5
					C58.5,29.5,57.9,29,57.4,28.5z"/>
				<path class="st0" d="M41.6,44.4c-2.3,2.5-4.5,5.1-5.2,5.8c-0.6,0.6-5.5,5.9-5.5,5.9s0.1,0.2,0.3,0.4c0.2,0.2,0.4,0.4,0.4,0.4
					s10.3-10.6,11.1-11.4L41.6,44.4z"/>
			</g>
			<path class="st0" d="M59.3,21.5c0-0.1,0-0.2,0-0.2c-0.5-0.1-1-0.1-1.2,0.1c-0.7,0.7,0.8,3.2,3.4,5.6c2.5,2.3,5.1,3.7,5.8,2.9
				c0.3-0.3,0.2-0.9-0.2-1.6C63.5,28.6,59.3,23.8,59.3,21.5z"/>
			<path class="st0" d="M70.7,22.4c-0.4,0.4-1,1.4-1.3,1.7c0.4-0.3,0.6-1.2,0.2-3.4c-0.3-1.6-0.5-2.1-0.7-2.6
				c-0.1-0.3-0.3-0.2-0.5,0c-0.2,0.2-0.7,1-0.7,1.1c0,0.2,0,0-0.7-2.3c-0.5-1.4-0.7-2.4-0.6-2.9c0-0.3,0-0.5,0-0.7
				c0-0.2-0.1-0.2-0.5,0c-0.2,0.1-2.2,1.5-3,3.5c-0.5,1.2-0.5,2.1-0.6,1.6c-0.1-1.2-0.1-1.1-0.2-1.1c-0.6,0.2-2.9,1.2-2.9,4.3
				c0,2.6,4.9,8.1,8.8,6.8c0,0,3-0.6,3-3.3C71,22.3,70.7,22.4,70.7,22.4z M69.7,25.8c-0.1,0.3-0.7,1-1.5,1.3
				c-0.9,0.4-2.2,0.5-2.8,0.3c-2.9-0.9-4.7-3.9-4.7-3.9c-2.3-3.7,0.8-5.3,1-5.3c0,0-0.3,1.2-0.1,2c0.2,0.7,0.6,1.3,0.8,1.7
				c0.3,0.8-0.1,1.4-0.3,1.6c-0.1,0.1,0.2,0.1,0.2,0c0,0,0.1-0.1,0.2-0.1c0.4-0.3,0.8-0.8,0.7-1.3c-0.3-1.1-1.1-1.9-0.1-4.2
				c0.6-1.4,2-2.9,2.1-2.9c0.2-0.1,0.4-0.3,0.4-0.2c0,0.2,0.3,1.2,0.4,1.9c0.1,0.7,0.9,2.1,0.7,4c-0.2,1.9-3.4,4.1-3.8,4.2
				c-0.1,0-0.4,0.2-0.4,0.2c-0.1,0.1,0.1,0.1,0.1,0.1c0.2,0,1.5-0.3,2.6-1c0.9-0.6,1.8-1.6,2.1-2.2c0.6-1,0.8-2.5,0.9-2.6
				c0.1-0.2,0.2-0.2,0.2-0.1c0,0.1,0.3,1,0.3,1.4c0,0.2,0.2,0.9,0.2,1.7c0,1.5-0.4,2.1-1.3,2.8c-0.5,0.4-1,0.5-1.6,0.6l-0.2,0
				c-0.1,0-0.2,0,0,0.1c0,0,0.1,0,0.2,0.1c0.5,0.2,1.5,0.2,2.2-0.2c0.3-0.2,0.7-0.5,1.2-1c0.2-0.2,0.5-0.6,0.5-0.4
				C70,24.6,70,25.2,69.7,25.8z"/>
		</g>
		<g>
			<path class="st0" d="M378.4,37.1c0,10.1,6.6,14.7,15.1,14.7c11.9,0,14.6-7.8,14.6-15.3V16c0-6.4-5.9-3.8-5.9-6.2
				c0-0.3,0.4-0.6,0.6-0.6c2.5,0,4.9,0.2,7.4,0.2c1.2,0,2.3-0.2,3.5-0.2c0.3,0,0.8,0.3,0.8,0.7c0,1.7-3.7,0.4-3.7,6.2v19.6
				c0,3.1,0.8,18.7-17.6,18.7c-16.6,0-19.8-9.3-19.8-19.1V14c0-3.7-5.1-2.2-5.1-4.2c0-0.4,1.1-0.6,1.4-0.6c1.6,0,3.2,0.2,4.9,0.2
				c2,0,4-0.2,6-0.2c0.3,0,2-0.1,2,0.6c0,1.7-4.2,0-4.2,4.5V37.1z"/>
			<path class="st0" d="M426.5,21.7c0-13.2-7.7-9.5-7.7-11.8c0-0.4,0.6-0.6,1-0.6c1,0,2,0.2,3,0.2c1,0,2-0.2,2.9-0.2
				c0.7,0,1.3,1,1.6,1.5l30.2,33.6c0.4,0.4,0.6,0.7,0.8,0.7c0.1,0,0.2-0.2,0.2-0.7V17.8c0-8.3-7-5.9-7-8c0-0.4,0.3-0.6,0.7-0.6
				c1.9,0,3.7,0.2,5.8,0.2c2.1,0,4.9-0.2,6.4-0.2c0.4,0,0.6,0.2,0.6,0.6c0,1.6-3.7,0.5-3.7,5.1v36.7c0,1.8-0.1,2.7-0.6,2.7
				c-0.4,0-1.1-0.3-2.4-1.8L431,21.9c-0.1-0.1-0.9-1.2-1.3-1.2c-0.3,0-0.4,0.2-0.4,1.5V48c0,5.7,5.6,3.5,5.6,5.2
				c0,0.3-0.1,0.8-0.7,0.8c-1.5,0-3.3-0.2-6.4-0.2c-2.2,0-5.5,0.2-5.9,0.2c-0.8,0-0.8-0.4-0.8-0.7c0-2.2,5.6,0.6,5.6-8.3V21.7z"/>
			<path class="st0" d="M476.6,14.6c-0.1-4.6-5.1-3.4-5.1-4.7c0-0.6,0.1-0.7,0.6-0.7c2.3,0,4.6,0.2,7,0.2c2,0,3.9-0.2,5.9-0.2
				c1,0,1.2,0.1,1.2,0.6c0,1.5-4.6,0.1-4.6,4.8v34c0,4.3,5.6,2.8,5.6,4.7c0,0.4-0.2,0.6-1.3,0.6c-1.5,0-4.2-0.2-6.9-0.2
				c-3.9,0-5.2,0.2-6.1,0.2c-1.1,0-1.3-0.3-1.3-0.9c0-1.8,4.9,0.3,4.9-6V14.6z"/>
			<path class="st0" d="M496.2,14.1c-1.6-3.8-4.9-2.6-4.9-4c0-0.6,0.3-0.9,0.9-0.9c2,0,3.9,0.2,5.8,0.2c1.7,0,4.1-0.2,5-0.2
				c0.4,0,0.9,0.3,0.9,0.6c0.1,0.9-2.6,1-2.6,3.2c0,0.9,0.3,1.9,0.6,2.5l11.1,26.1c1.4,3.4,1.8,4.8,2.5,4.8c0.6,0,0.8-1,1.1-1.8
				l11-27.2c0.4-0.9,1.1-3,0.9-4.3c0-2.9-4.1-1.7-4.1-3.2c0-0.6,0.3-0.8,0.9-0.8c1.4,0,2.8,0.2,4.2,0.2c3,0,4-0.2,4.9-0.2
				c0.7,0,1.1,0.3,1.1,0.8c0,1.4-1.8-0.2-3.5,4.1l-15.8,37.3c-0.7,1.6-1.1,3.7-2.1,3.7c-1,0-1.8-2.7-2.3-4L496.2,14.1z"/>
			<path class="st0" d="M589.5,13.6c0-2.5,1.3-2.3,3.6-2.3c6.2,0,12.1,2.6,12.1,10.3c0,7.8-6.1,9-8.8,9c-3,0-6.9,0.3-6.9-0.9V13.6z
				 M602,31.1c4.4-1.8,8-6,8-11c0-12.2-14-10.9-15-10.9c-3.3,0-6.9,0.2-10.6,0.2c-3.2,0-2.9-0.2-4.1-0.2c-0.8,0-1.3,0.4-1.3,0.8
				c0,2.1,5.4-0.4,5.4,5.6v32.2c0,4.8-4.6,3.9-4.6,5.5c0,0.4,0.3,0.7,0.6,0.7c2.4,0,4.8-0.2,7.2-0.2c5.3,0,6.7,0.2,7.3,0.2
				c0.5,0,1.1,0.1,1.1-0.5c0-2.2-6.6-0.2-6.6-5.6V34.5c0-0.6-0.4-1.8,1.6-1.8c7.1,0,6.2-0.2,8.4,3.3l7,11.1c2.4,3.6,4.9,6.8,9.5,6.8
				c0.6,0,4.1,0,4.1-0.8c0-1.5-3.1,0.8-7.7-6.1L602,31.1z"/>
			<path class="st0" d="M622.6,42.7c-0.3-1.3,0.1-2,0.7-2c0.9,0,0.9,0.8,1.2,2.1c0.8,2.9,4.6,9.5,13.3,9.5c6.1,0,12-3.4,12-10
				c0-12.2-25.8-5.4-25.8-21.9c0-8,6.8-11.9,14.1-11.9c7.7,0,9.8,2.3,10.7,2.3c0.6,0,0.7-0.7,1.3-0.7c0.4,0,0.7,0.2,0.8,0.9l0.9,8.6
				c0.1,0.5-0.1,0.9-0.7,0.9c-0.7,0-1.1-1.3-1.3-1.9c-1.9-5.4-6.6-8.2-12.2-8.2c-5,0-10.4,2.4-10.4,8.2c0,11.9,25.8,4.9,25.8,22.4
				c0,5.3-3.7,13.3-18.2,13.3c-4.7,0-10.5-2.4-10.7-3.5L622.6,42.7z"/>
			<path class="st0" d="M665.1,14.6C665,10,660,11.3,660,9.9c0-0.6,0.1-0.7,0.6-0.7c2.3,0,4.6,0.2,7,0.2c2,0,3.9-0.2,5.9-0.2
				c1,0,1.2,0.1,1.2,0.6c0,1.5-4.6,0.1-4.6,4.8v34c0,4.3,5.6,2.8,5.6,4.7c0,0.4-0.2,0.6-1.3,0.6c-1.5,0-4.2-0.2-6.9-0.2
				c-3.9,0-5.2,0.2-6.1,0.2c-1.1,0-1.3-0.3-1.3-0.9c0-1.8,4.9,0.3,4.9-6V14.6z"/>
			<path class="st0" d="M698.3,15.6c0-0.4,0.3-2.8-0.6-2.9h-10.3c-3.9,0-4.1,1-5.2,4.4c-0.2,0.6-0.3,1.5-1.1,1.5
				c-0.4,0-0.6-0.4-0.6-0.8l0.7-6.1c0.1-0.8,0-2.5,1.1-2.5c4.9,0,9.8,0.2,18,0.2c11.4,0,17.3-0.2,18.5-0.2c1.5,0,1.8,0.4,1.9,1.8
				l0.3,5.1c0.1,0.6,0.1,1.4-0.7,1.4c-2.4,0,1.1-4.8-5.4-4.8h-9.1c-2.8,0-2.5-0.3-2.5,3.1V48c0,5.3,5.1,3.2,5.1,5.2
				c0,0.2,0.1,0.8-0.6,0.8c-1.5,0-3.3-0.2-5.1-0.2c-7.1,0-8.3,0.2-8.7,0.2c-0.6,0-0.8-0.2-0.8-0.8c0-1.5,5-0.9,5-4.7V15.6z"/>
			<path class="st0" d="M727.9,13.2c-1.7-2.7-4.8-2-4.8-3c0-0.4,0.4-0.9,0.8-0.9c1.7,0,2.9,0.2,7.2,0.2c2.1,0,3.8-0.2,4.4-0.2
				c0.4,0,1.2,0.1,1.2,0.6c0,1.1-3,1.1-3,3c0,1,0.8,2,1.1,2.6l7.7,12.2c0.5,0.8,0.9,1.1,1.3,1.1c0.3,0,0.7-0.4,1.2-1.3l6.5-10.6
				c0.4-0.7,1.3-1.8,1.3-3.5c0-3.1-4.8-1.8-4.8-3.3c0-0.8,0.6-0.9,1.3-0.9c1.5,0,3.1,0.2,4.6,0.2c1.8,0,3.7-0.2,5.5-0.2
				c0.4,0,0.7,0.4,0.7,0.8c0,0.7-1.1,1-1.5,1.2c-1.7,1-2.5,2.8-3.5,4.4l-8.9,13.8c-1,1.6-1.5,1.9-1.5,2.8v15.5
				c0,5.5,5.2,3.7,5.2,5.7c0,0.6-0.6,0.6-1.5,0.6c-0.9,0-4.6-0.2-7-0.2c-2.8,0-5.1,0.2-5.7,0.2c-0.6,0-0.9-0.1-0.9-0.8
				c0-1.8,4.9-0.1,4.9-4.6V33.3c0-1.2-1-2.5-1.5-3.2L727.9,13.2z"/>
			<path class="st0" d="M551.2,27.3c0,2.2-0.1,2.2,2.4,2.2h6.8c6.5,0,4.9-5.1,6.4-5.1c0.5,0,0.7,0.7,0.7,1.2c0,2.2-0.1,4.4-0.1,6.4
				c0,1.6,0.1,3.3,0.1,5c0,0.6-0.3,0.8-0.7,0.8c-1.9,0,0.2-5.6-5.1-5.6h-9.4c-1.3,0-1.1,1.1-1.1,2v11.6c0,3.7-0.5,5.2,4.8,5.2
				c14.6,0,16.7-6.5,17.5-6.5c0.4,0,0.5,0.6,0.5,0.8c0,2.3-1.6,4.5-3.2,6.1c-2,2.2-3.4,2.1-6.2,2.1c-4.8,0-9.6-0.3-14.4-0.2
				c-2.5,0.1-5.2,0.2-7.7,0.2c-0.6,0-0.9-0.1-0.9-0.6c0.1-0.7,0.8-0.6,2.8-1.6c1.6-0.8,1.8-2.5,1.8-5.5V17c0-2.9,0-5.9-3.4-6.4
				c-0.5-0.1-1.9-0.2-1.9-1c0-0.5,0.4-0.8,2.2-0.8c11.9,0,15.2,0.2,17.9,0.2c1.3,0,7-0.2,9-0.2c0.5,0,0.6,0.6,0.6,1.4
				c0,7-0.9,7.5-1.3,7.5c-1.5,0-0.5-3-1.5-4.5c-1.6-2.2-8.2-1.8-10.7-1.8c-6.1,0-5.9-0.3-5.9,4V27.3z"/>
			<g>
				<path class="st0" d="M245.8,10.2c12.9,0,21,11.7,21,23.7c0,12.2-7.7,19.9-17.4,19.9c-13.1,0-21.1-11.8-21.1-24
					C228.4,19.3,234.7,10.2,245.8,10.2z M246.7,55.8c14.7,0,24.9-9.6,24.9-24.4c0-13.7-10.3-23.4-23.8-23.4
					c-13.5,0-24.2,10-24.2,23.7C223.6,45.6,232.4,55.8,246.7,55.8z"/>
				<path class="st0" d="M285,13.1c0-2.5,1.3-2.4,3.7-2.4c6.3,0,12.3,2.6,12.3,10.5c0,8-6.2,9.1-8.9,9.1c-3,0-7,0.3-7-0.9V13.1z
					 M297.6,30.7c4.5-1.8,8.1-6.1,8.1-11.1c0-12.4-14.2-11.1-15.2-11.1c-3.3,0-7,0.3-10.7,0.3c-3.3,0-2.9-0.3-4.1-0.3
					c-0.8,0-1.3,0.4-1.3,0.8c0,2.2,5.5-0.4,5.5,5.7v32.6c0,4.9-4.7,4-4.7,5.6c0,0.4,0.3,0.7,0.6,0.7c2.4,0,4.9-0.3,7.3-0.3
					c5.3,0,6.8,0.3,7.4,0.3c0.5,0,1.1,0.1,1.1-0.5c0-2.2-6.7-0.2-6.7-5.7V34.2c0-0.6-0.4-1.8,1.7-1.8c7.2,0,6.2-0.2,8.5,3.4
					l7.1,11.2c2.4,3.7,4.9,6.9,9.6,6.9c0.6,0,5.7,0,5.7-0.8c0-1.5-4.6,0.8-9.2-6.2L297.6,30.7z"/>
				<path class="st0" d="M316.4,12.6c-1.7-2.8-4.8-2-4.8-3.1c0-0.4,0.4-1,0.8-1c1.7,0,2.9,0.3,7.3,0.3c2.1,0,3.8-0.3,4.5-0.3
					c0.4,0,1.2,0.1,1.2,0.6c0,1.1-3,1.1-3,3c0,1,0.8,2.1,1.2,2.6l7.7,12.4c0.5,0.8,0.9,1.2,1.3,1.2c0.3,0,0.7-0.4,1.2-1.3l6.6-10.7
					c0.4-0.7,1.3-1.8,1.3-3.5c0-3.1-4.8-1.8-4.8-3.3c0-0.8,0.6-1,1.3-1c1.5,0,3.1,0.3,4.7,0.3c1.9,0,3.7-0.3,5.6-0.3
					c0.4,0,0.7,0.4,0.7,0.8c0,0.7-1.1,1-1.5,1.2c-1.7,1-2.6,2.8-3.6,4.4l-9,14c-1,1.6-1.5,1.9-1.5,2.9v15.7c0,5.6,5.3,3.8,5.3,5.8
					c0,0.6-0.6,0.6-1.5,0.6c-1,0-4.7-0.3-7-0.3c-2.9,0-5.2,0.3-5.8,0.3c-0.6,0-1-0.1-1-0.8c0-1.8,4.9-0.1,4.9-4.7V33
					c0-1.2-1-2.5-1.5-3.3L316.4,12.6z"/>
				<path class="st0" d="M216.3,48.1c0.3,5.4,5.1,3,5.1,5.3c0,0.6-0.8,0.6-1.5,0.6c-1.2,0-3.5-0.3-6-0.3c-2,0-4,0.3-5.5,0.3
					c-0.6,0-0.7-0.3-0.7-0.6c0-1.9,4-0.5,4-5.2l-1.8-24.9c0-1.6-0.3-2.5-0.7-2.5c-0.4,0-1,0.6-1.7,1.9l-13.3,27
					c-0.3,0.6-1.3,3.2-2,3.2c-0.6,0-1.1-1.4-1.3-1.9l-13.7-28.6c-0.2-0.5-0.5-0.7-0.8-0.7c-0.2,0-0.4,0.3-0.4,1l-1.9,22.5
					c-0.3,8.5,5.8,5.7,5.8,8c0,0.6-0.7,0.7-1.6,0.7c-0.8,0-3.7-0.3-5.6-0.3c-3.3,0-4.4,0.3-5.7,0.3c-0.4,0-0.6-0.3-0.6-0.8
					c0-2.2,4.1,0.4,4.5-6.2c0.8-10.5,1.5-17.3,1.5-24.1c0-15.1-5-11.5-5-13.7c0-0.6,0.5-0.7,1.1-0.7c1.1,0,2.3,0.3,3.5,0.3
					c1.2,0,2.3-0.3,3.4-0.3c0.9,0,1,1.1,1.3,1.8L192.2,43c0.7,1.3,1,1.9,1.4,1.9c0.3,0,1-1.3,2-3.5l15.3-30.7
					c0.4-0.7,0.9-2.2,1.7-2.2c0.6,0,2.7,0.3,3,0.3c1.5,0,2.1-0.3,3.1-0.3c0.4,0,0.6,0.4,0.6,0.8c0,2.1-5.1-0.7-4.9,6.9L216.3,48.1z"
					/>
				<path class="st0" d="M138.4,27.3c0,2.2-0.1,2.2,2.4,2.2h6.9c6.6,0,4.9-5.1,6.4-5.1c0.5,0,0.7,0.7,0.7,1.2c0,2.3-0.1,4.4-0.1,6.5
					c0,1.7,0.1,3.3,0.1,5.1c0,0.6-0.3,0.8-0.7,0.8c-2,0,0.2-5.6-5.2-5.6h-9.5c-1.3,0-1.2,1.1-1.2,2.1v11.8c0,3.8-0.5,5.3,4.9,5.3
					c14.8,0,16.9-6.6,17.8-6.6c0.4,0,0.5,0.6,0.5,0.8c0,2.3-1.7,4.6-3.2,6.2c-2.1,2.3-3.5,2.2-6.3,2.2c-4.9,0-9.7-0.4-14.6-0.3
					c-2.5,0.1-5.2,0.3-7.8,0.3c-0.6,0-1-0.1-1-0.6c0.1-0.8,0.8-0.6,2.8-1.7c1.7-0.8,1.8-2.6,1.8-5.6V16.9c0-2.9,0-6-3.5-6.5
					c-0.5-0.1-1.9-0.3-1.9-1c0-0.5,0.4-0.8,2.2-0.8c12.1,0,15.4,0.3,18.1,0.3c1.3,0,7.1-0.3,9.1-0.3c0.5,0,0.6,0.6,0.6,1.4
					c0,7.1-0.9,7.6-1.3,7.6c-1.5,0-0.5-3.1-1.5-4.6c-1.6-2.2-8.3-1.8-10.9-1.8c-6.1,0-6-0.3-6,4V27.3z"/>
			</g>
		</g>
	</g>
</g>
</svg>